<svg width="181" height="181" viewBox="0 0 181 181" fill="none" xmlns="http://www.w3.org/2000/svg">
<path d="M171.936 0H9.04925C4.05149 0 0 4.05182 0 9.05V171.95C0 176.948 4.05149 181 9.04925 181H171.936C176.934 181 180.985 176.948 180.985 171.95V9.05C180.985 4.05182 176.934 0 171.936 0Z" fill="url(#paint0_linear_4206_8534)"/>
<path d="M59.2725 91.4053L90.2662 39.8203L121.034 91.4053L90.2662 110.184L59.2725 91.4053Z" fill="#333333"/>
<path d="M90.2662 115.84L59.2725 97.0615L90.2662 140.728L121.034 97.0615L90.2662 115.84Z" fill="#333333"/>
<path d="M129.857 120.817H121.034V133.94H108.817V142.085H121.034V155.66H129.857V142.085H141.847V133.94H129.857V120.817Z" fill="#333333"/>
<defs>
<linearGradient id="paint0_linear_4206_8534" x1="90.4925" y1="90.5" x2="180.993" y2="180.993" gradientUnits="userSpaceOnUse">
<stop stop-color="#FFE067"/>
<stop offset="1" stop-color="#FFF7D9"/>
</linearGradient>
</defs>
</svg>
