<svg width="1089" height="400" viewBox="0 0 1089 400" fill="none" xmlns="http://www.w3.org/2000/svg">
<path d="M483.359 121.396C483.359 120.127 483.164 118.988 482.773 117.979C482.415 116.937 481.732 115.993 480.723 115.146C479.714 114.268 478.298 113.405 476.475 112.559C474.652 111.712 472.292 110.833 469.395 109.922C466.172 108.88 463.112 107.708 460.215 106.406C457.35 105.104 454.811 103.59 452.598 101.865C450.417 100.107 448.691 98.0729 447.422 95.7617C446.185 93.4505 445.566 90.765 445.566 87.7051C445.566 84.7428 446.217 82.0573 447.52 79.6484C448.822 77.207 450.645 75.1237 452.988 73.3984C455.332 71.6406 458.099 70.2897 461.289 69.3457C464.512 68.4017 468.044 67.9297 471.885 67.9297C477.126 67.9297 481.699 68.8737 485.605 70.7617C489.512 72.6497 492.539 75.2376 494.688 78.5254C496.868 81.8132 497.959 85.5729 497.959 89.8047H483.408C483.408 87.7214 482.969 85.8984 482.09 84.3359C481.243 82.7409 479.941 81.4876 478.184 80.5762C476.458 79.6647 474.277 79.209 471.641 79.209C469.102 79.209 466.986 79.5996 465.293 80.3809C463.6 81.1296 462.331 82.1549 461.484 83.457C460.638 84.7266 460.215 86.1589 460.215 87.7539C460.215 88.9583 460.508 90.0488 461.094 91.0254C461.712 92.002 462.624 92.9134 463.828 93.7598C465.033 94.6061 466.514 95.4036 468.271 96.1523C470.029 96.901 472.064 97.6335 474.375 98.3496C478.249 99.5215 481.65 100.84 484.58 102.305C487.542 103.77 490.016 105.413 492.002 107.236C493.988 109.059 495.485 111.126 496.494 113.438C497.503 115.749 498.008 118.369 498.008 121.299C498.008 124.391 497.406 127.158 496.201 129.6C494.997 132.041 493.255 134.108 490.977 135.801C488.698 137.493 485.98 138.779 482.822 139.658C479.665 140.537 476.133 140.977 472.227 140.977C468.711 140.977 465.244 140.521 461.826 139.609C458.408 138.665 455.299 137.249 452.5 135.361C449.733 133.473 447.52 131.064 445.859 128.135C444.199 125.205 443.369 121.738 443.369 117.734H458.066C458.066 119.948 458.408 121.82 459.092 123.35C459.775 124.88 460.736 126.117 461.973 127.061C463.242 128.005 464.74 128.688 466.465 129.111C468.223 129.535 470.143 129.746 472.227 129.746C474.766 129.746 476.849 129.388 478.477 128.672C480.137 127.956 481.357 126.963 482.139 125.693C482.952 124.424 483.359 122.992 483.359 121.396ZM521.934 87.168V140H507.822V87.168H521.934ZM506.943 73.3984C506.943 71.3477 507.66 69.6549 509.092 68.3203C510.524 66.9857 512.445 66.3184 514.854 66.3184C517.23 66.3184 519.134 66.9857 520.566 68.3203C522.031 69.6549 522.764 71.3477 522.764 73.3984C522.764 75.4492 522.031 77.1419 520.566 78.4766C519.134 79.8112 517.23 80.4785 514.854 80.4785C512.445 80.4785 510.524 79.8112 509.092 78.4766C507.66 77.1419 506.943 75.4492 506.943 73.3984ZM567.002 87.168H579.746V138.242C579.746 143.06 578.672 147.145 576.523 150.498C574.408 153.883 571.445 156.439 567.637 158.164C563.828 159.922 559.401 160.801 554.355 160.801C552.142 160.801 549.798 160.508 547.324 159.922C544.883 159.336 542.539 158.424 540.293 157.188C538.079 155.951 536.224 154.388 534.727 152.5L540.928 144.199C542.555 146.087 544.443 147.552 546.592 148.594C548.74 149.668 551.117 150.205 553.721 150.205C556.26 150.205 558.408 149.733 560.166 148.789C561.924 147.878 563.275 146.527 564.219 144.736C565.163 142.979 565.635 140.846 565.635 138.34V99.375L567.002 87.168ZM531.455 114.219V113.193C531.455 109.157 531.943 105.495 532.92 102.207C533.929 98.8867 535.345 96.0384 537.168 93.6621C539.023 91.2858 541.27 89.4466 543.906 88.1445C546.543 86.8424 549.521 86.1914 552.842 86.1914C556.357 86.1914 559.303 86.8424 561.68 88.1445C564.056 89.4466 566.009 91.3021 567.539 93.7109C569.069 96.0872 570.257 98.903 571.104 102.158C571.982 105.381 572.666 108.913 573.154 112.754V115C572.666 118.678 571.934 122.096 570.957 125.254C569.98 128.411 568.695 131.178 567.1 133.555C565.505 135.898 563.519 137.721 561.143 139.023C558.799 140.326 555.999 140.977 552.744 140.977C549.489 140.977 546.543 140.309 543.906 138.975C541.302 137.64 539.072 135.768 537.217 133.359C535.361 130.951 533.929 128.118 532.92 124.863C531.943 121.608 531.455 118.06 531.455 114.219ZM545.518 113.193V114.219C545.518 116.4 545.729 118.434 546.152 120.322C546.576 122.21 547.227 123.887 548.105 125.352C549.017 126.784 550.14 127.907 551.475 128.721C552.842 129.502 554.453 129.893 556.309 129.893C558.88 129.893 560.98 129.355 562.607 128.281C564.235 127.174 565.456 125.661 566.27 123.74C567.083 121.82 567.555 119.606 567.686 117.1V110.703C567.62 108.652 567.344 106.813 566.855 105.186C566.367 103.525 565.684 102.109 564.805 100.938C563.926 99.7656 562.786 98.8542 561.387 98.2031C559.987 97.5521 558.327 97.2266 556.406 97.2266C554.551 97.2266 552.939 97.6497 551.572 98.4961C550.238 99.3099 549.115 100.433 548.203 101.865C547.324 103.298 546.657 104.99 546.201 106.943C545.745 108.864 545.518 110.947 545.518 113.193ZM604.453 98.4473V140H590.391V87.168H603.574L604.453 98.4473ZM602.402 111.729H598.594C598.594 107.822 599.098 104.307 600.107 101.182C601.117 98.0241 602.533 95.3385 604.355 93.125C606.178 90.8789 608.343 89.1699 610.85 87.998C613.389 86.7936 616.221 86.1914 619.346 86.1914C621.82 86.1914 624.082 86.5495 626.133 87.2656C628.184 87.9818 629.941 89.1211 631.406 90.6836C632.904 92.2461 634.043 94.3132 634.824 96.8848C635.638 99.4564 636.045 102.598 636.045 106.309V140H621.885V106.26C621.885 103.916 621.559 102.093 620.908 100.791C620.257 99.4889 619.297 98.5775 618.027 98.0566C616.79 97.5033 615.26 97.2266 613.438 97.2266C611.549 97.2266 609.906 97.6009 608.506 98.3496C607.139 99.0983 605.999 100.14 605.088 101.475C604.209 102.777 603.542 104.307 603.086 106.064C602.63 107.822 602.402 109.71 602.402 111.729ZM686.484 87.168V140H672.373V87.168H686.484ZM671.494 73.3984C671.494 71.3477 672.21 69.6549 673.643 68.3203C675.075 66.9857 676.995 66.3184 679.404 66.3184C681.781 66.3184 683.685 66.9857 685.117 68.3203C686.582 69.6549 687.314 71.3477 687.314 73.3984C687.314 75.4492 686.582 77.1419 685.117 78.4766C683.685 79.8112 681.781 80.4785 679.404 80.4785C676.995 80.4785 675.075 79.8112 673.643 78.4766C672.21 77.1419 671.494 75.4492 671.494 73.3984ZM711.875 98.4473V140H697.812V87.168H710.996L711.875 98.4473ZM709.824 111.729H706.016C706.016 107.822 706.52 104.307 707.529 101.182C708.538 98.0241 709.954 95.3385 711.777 93.125C713.6 90.8789 715.765 89.1699 718.271 87.998C720.811 86.7936 723.643 86.1914 726.768 86.1914C729.242 86.1914 731.504 86.5495 733.555 87.2656C735.605 87.9818 737.363 89.1211 738.828 90.6836C740.326 92.2461 741.465 94.3132 742.246 96.8848C743.06 99.4564 743.467 102.598 743.467 106.309V140H729.307V106.26C729.307 103.916 728.981 102.093 728.33 100.791C727.679 99.4889 726.719 98.5775 725.449 98.0566C724.212 97.5033 722.682 97.2266 720.859 97.2266C718.971 97.2266 717.327 97.6009 715.928 98.3496C714.561 99.0983 713.421 100.14 712.51 101.475C711.631 102.777 710.964 104.307 710.508 106.064C710.052 107.822 709.824 109.71 709.824 111.729ZM794.15 126.328L805.137 87.168H814.072L811.191 102.549L800.205 140H792.734L794.15 126.328ZM788.584 87.168L796.445 126.279L797.178 140H788.389L775.01 87.168H788.584ZM824.131 125.645L831.797 87.168H845.42L832.041 140H823.301L824.131 125.645ZM815.293 87.168L826.23 126.035L827.744 140H820.225L809.238 102.598L806.455 87.168H815.293ZM867.344 87.168V140H853.232V87.168H867.344ZM852.354 73.3984C852.354 71.3477 853.07 69.6549 854.502 68.3203C855.934 66.9857 857.855 66.3184 860.264 66.3184C862.64 66.3184 864.544 66.9857 865.977 68.3203C867.441 69.6549 868.174 71.3477 868.174 73.3984C868.174 75.4492 867.441 77.1419 865.977 78.4766C864.544 79.8112 862.64 80.4785 860.264 80.4785C857.855 80.4785 855.934 79.8112 854.502 78.4766C853.07 77.1419 852.354 75.4492 852.354 73.3984ZM904.844 87.168V97.1289H874.082V87.168H904.844ZM881.699 74.1309H895.762V124.082C895.762 125.612 895.957 126.784 896.348 127.598C896.771 128.411 897.389 128.981 898.203 129.307C899.017 129.6 900.042 129.746 901.279 129.746C902.158 129.746 902.939 129.714 903.623 129.648C904.339 129.551 904.941 129.453 905.43 129.355L905.479 139.707C904.274 140.098 902.972 140.407 901.572 140.635C900.173 140.863 898.626 140.977 896.934 140.977C893.841 140.977 891.139 140.472 888.828 139.463C886.549 138.421 884.792 136.761 883.555 134.482C882.318 132.204 881.699 129.209 881.699 125.498V74.1309ZM926.572 65V140H912.51V65H926.572ZM924.57 111.729H920.713C920.745 108.05 921.234 104.665 922.178 101.572C923.122 98.4473 924.473 95.7454 926.23 93.4668C927.988 91.1556 930.088 89.3652 932.529 88.0957C935.003 86.8262 937.738 86.1914 940.732 86.1914C943.337 86.1914 945.697 86.5658 947.812 87.3145C949.961 88.0306 951.8 89.2025 953.33 90.8301C954.893 92.4251 956.097 94.5247 956.943 97.1289C957.79 99.7331 958.213 102.891 958.213 106.602V140H944.053V106.504C944.053 104.16 943.711 102.321 943.027 100.986C942.376 99.6191 941.416 98.6589 940.146 98.1055C938.91 97.5195 937.38 97.2266 935.557 97.2266C933.538 97.2266 931.813 97.6009 930.381 98.3496C928.981 99.0983 927.858 100.14 927.012 101.475C926.165 102.777 925.547 104.307 925.156 106.064C924.766 107.822 924.57 109.71 924.57 111.729ZM521.079 298.861V316H464.316V298.861H521.079ZM471.494 209.359V316H449.521V209.359H471.494ZM513.682 252.792V269.491H464.316V252.792H513.682ZM521.006 209.359V226.571H464.316V209.359H521.006ZM571.396 236.752V251.693H525.254V236.752H571.396ZM536.68 217.196H557.773V292.123C557.773 294.418 558.066 296.176 558.652 297.396C559.287 298.617 560.215 299.472 561.436 299.96C562.656 300.399 564.194 300.619 566.05 300.619C567.368 300.619 568.54 300.57 569.565 300.473C570.64 300.326 571.543 300.18 572.275 300.033L572.349 315.561C570.542 316.146 568.589 316.61 566.489 316.952C564.39 317.294 562.07 317.465 559.531 317.465C554.893 317.465 550.84 316.708 547.373 315.194C543.955 313.632 541.318 311.142 539.463 307.724C537.607 304.306 536.68 299.813 536.68 294.247V217.196ZM603.989 203.5V316H582.896V203.5H603.989ZM600.986 273.593H595.2C595.249 268.075 595.981 262.997 597.397 258.358C598.813 253.671 600.84 249.618 603.477 246.2C606.113 242.733 609.263 240.048 612.925 238.144C616.636 236.239 620.737 235.287 625.229 235.287C629.136 235.287 632.676 235.849 635.85 236.972C639.072 238.046 641.831 239.804 644.126 242.245C646.47 244.638 648.276 247.787 649.546 251.693C650.815 255.6 651.45 260.336 651.45 265.902V316H630.21V265.756C630.21 262.24 629.697 259.481 628.672 257.479C627.695 255.429 626.255 253.988 624.351 253.158C622.495 252.279 620.2 251.84 617.466 251.84C614.438 251.84 611.851 252.401 609.702 253.524C607.603 254.647 605.918 256.21 604.648 258.212C603.379 260.165 602.451 262.46 601.865 265.097C601.279 267.733 600.986 270.565 600.986 273.593ZM703.965 317.465C697.812 317.465 692.295 316.488 687.412 314.535C682.529 312.533 678.379 309.774 674.961 306.259C671.592 302.743 669.004 298.666 667.197 294.027C665.391 289.34 664.487 284.359 664.487 279.086V276.156C664.487 270.15 665.342 264.657 667.051 259.677C668.76 254.696 671.201 250.375 674.375 246.713C677.598 243.051 681.504 240.243 686.094 238.29C690.684 236.288 695.859 235.287 701.621 235.287C707.236 235.287 712.217 236.215 716.562 238.07C720.908 239.926 724.546 242.562 727.476 245.98C730.454 249.398 732.7 253.5 734.214 258.285C735.728 263.021 736.484 268.295 736.484 274.105V282.895H673.496V268.832H715.757V267.221C715.757 264.291 715.22 261.679 714.146 259.384C713.12 257.04 711.558 255.185 709.458 253.817C707.358 252.45 704.673 251.767 701.401 251.767C698.618 251.767 696.226 252.377 694.224 253.598C692.222 254.818 690.586 256.527 689.316 258.725C688.096 260.922 687.168 263.51 686.533 266.488C685.947 269.418 685.654 272.641 685.654 276.156V279.086C685.654 282.26 686.094 285.189 686.973 287.875C687.9 290.561 689.194 292.88 690.854 294.833C692.563 296.786 694.614 298.3 697.007 299.374C699.448 300.448 702.207 300.985 705.283 300.985C709.092 300.985 712.632 300.253 715.903 298.788C719.224 297.274 722.08 295.004 724.473 291.977L734.727 303.109C733.066 305.502 730.796 307.797 727.915 309.994C725.083 312.191 721.665 313.998 717.661 315.414C713.657 316.781 709.092 317.465 703.965 317.465ZM769.59 254.037V316H748.496V236.752H768.345L769.59 254.037ZM793.467 236.239L793.101 255.795C792.075 255.648 790.83 255.526 789.365 255.429C787.949 255.282 786.655 255.209 785.483 255.209C782.505 255.209 779.917 255.6 777.72 256.381C775.571 257.113 773.765 258.212 772.3 259.677C770.884 261.142 769.81 262.924 769.077 265.023C768.394 267.123 768.003 269.516 767.905 272.201L763.657 270.883C763.657 265.756 764.17 261.044 765.195 256.747C766.221 252.401 767.71 248.617 769.663 245.395C771.665 242.172 774.106 239.682 776.987 237.924C779.868 236.166 783.164 235.287 786.875 235.287C788.047 235.287 789.243 235.385 790.464 235.58C791.685 235.727 792.686 235.946 793.467 236.239ZM838.438 317.465C832.285 317.465 826.768 316.488 821.885 314.535C817.002 312.533 812.852 309.774 809.434 306.259C806.064 302.743 803.477 298.666 801.67 294.027C799.863 289.34 798.96 284.359 798.96 279.086V276.156C798.96 270.15 799.814 264.657 801.523 259.677C803.232 254.696 805.674 250.375 808.848 246.713C812.07 243.051 815.977 240.243 820.566 238.29C825.156 236.288 830.332 235.287 836.094 235.287C841.709 235.287 846.689 236.215 851.035 238.07C855.381 239.926 859.019 242.562 861.948 245.98C864.927 249.398 867.173 253.5 868.687 258.285C870.2 263.021 870.957 268.295 870.957 274.105V282.895H807.969V268.832H850.229V267.221C850.229 264.291 849.692 261.679 848.618 259.384C847.593 257.04 846.03 255.185 843.931 253.817C841.831 252.45 839.146 251.767 835.874 251.767C833.091 251.767 830.698 252.377 828.696 253.598C826.694 254.818 825.059 256.527 823.789 258.725C822.568 260.922 821.641 263.51 821.006 266.488C820.42 269.418 820.127 272.641 820.127 276.156V279.086C820.127 282.26 820.566 285.189 821.445 287.875C822.373 290.561 823.667 292.88 825.327 294.833C827.036 296.786 829.087 298.3 831.479 299.374C833.921 300.448 836.68 300.985 839.756 300.985C843.564 300.985 847.104 300.253 850.376 298.788C853.696 297.274 856.553 295.004 858.945 291.977L869.199 303.109C867.539 305.502 865.269 307.797 862.388 309.994C859.556 312.191 856.138 313.998 852.134 315.414C848.13 316.781 843.564 317.465 838.438 317.465ZM929.844 297.03V236.752H950.938V316H931.089L929.844 297.03ZM932.188 280.771L938.413 280.624C938.413 285.897 937.803 290.805 936.582 295.346C935.361 299.838 933.53 303.744 931.089 307.064C928.647 310.336 925.571 312.899 921.86 314.755C918.149 316.562 913.779 317.465 908.75 317.465C904.893 317.465 901.328 316.928 898.057 315.854C894.834 314.73 892.051 312.997 889.707 310.653C887.412 308.261 885.605 305.209 884.287 301.498C883.018 297.738 882.383 293.222 882.383 287.948V236.752H903.477V288.095C903.477 290.438 903.745 292.416 904.282 294.027C904.868 295.639 905.674 296.957 906.699 297.982C907.725 299.008 908.921 299.74 910.288 300.18C911.704 300.619 913.267 300.839 914.976 300.839C919.321 300.839 922.739 299.96 925.229 298.202C927.769 296.444 929.551 294.052 930.576 291.024C931.65 287.948 932.188 284.53 932.188 280.771ZM988.145 253.158V316H966.978V236.752H986.826L988.145 253.158ZM985.215 273.593H979.355C979.355 268.075 980.015 262.997 981.333 258.358C982.7 253.671 984.678 249.618 987.266 246.2C989.902 242.733 993.149 240.048 997.007 238.144C1000.86 236.239 1005.33 235.287 1010.41 235.287C1013.93 235.287 1017.15 235.824 1020.08 236.898C1023.01 237.924 1025.52 239.56 1027.62 241.806C1029.77 244.003 1031.43 246.884 1032.6 250.448C1033.77 253.964 1034.36 258.188 1034.36 263.119V316H1013.27V265.463C1013.27 261.85 1012.78 259.066 1011.8 257.113C1010.83 255.16 1009.43 253.793 1007.63 253.012C1005.87 252.23 1003.75 251.84 1001.25 251.84C998.521 251.84 996.128 252.401 994.077 253.524C992.075 254.647 990.415 256.21 989.097 258.212C987.778 260.165 986.802 262.46 986.167 265.097C985.532 267.733 985.215 270.565 985.215 273.593ZM1032.38 271.176L1024.84 272.128C1024.84 266.952 1025.47 262.143 1026.74 257.699C1028.06 253.256 1029.99 249.35 1032.53 245.98C1035.12 242.611 1038.32 239.999 1042.12 238.144C1045.93 236.239 1050.33 235.287 1055.31 235.287C1059.12 235.287 1062.58 235.849 1065.71 236.972C1068.83 238.046 1071.49 239.779 1073.69 242.172C1075.94 244.516 1077.65 247.592 1078.82 251.4C1080.04 255.209 1080.65 259.872 1080.65 265.39V316H1059.48V265.39C1059.48 261.728 1058.99 258.944 1058.02 257.04C1057.09 255.087 1055.72 253.744 1053.92 253.012C1052.16 252.23 1050.06 251.84 1047.62 251.84C1045.08 251.84 1042.86 252.353 1040.95 253.378C1039.05 254.354 1037.46 255.722 1036.19 257.479C1034.92 259.237 1033.97 261.288 1033.33 263.632C1032.7 265.927 1032.38 268.441 1032.38 271.176Z" fill="#333333"/>
<rect width="400" height="400" rx="20" fill="#00EAF2"/>
<path d="M137.751 149.928L200.276 46.5874L262.344 149.928L200.276 187.548L137.751 149.928Z" fill="#333333"/>
<path d="M200.276 199.13L137.751 161.494L200.276 249.01L262.344 161.494L200.276 199.13Z" fill="#333333"/>
<path d="M186.902 201.975H213.268V339.082L186.902 353.168V201.975Z" fill="#333333"/>
<rect x="200.76" y="270.571" width="42.4329" height="22.6584" fill="#333333"/>
<rect x="200.76" y="306.824" width="42.4329" height="22.6584" fill="#333333"/>
</svg>
