<svg width="2157" height="996" viewBox="0 0 2157 996" fill="none" xmlns="http://www.w3.org/2000/svg">
<path d="M585.548 237.378C584.98 231.649 582.542 227.198 578.233 224.026C573.924 220.853 568.077 219.267 560.69 219.267C555.671 219.267 551.434 219.977 547.977 221.398C544.521 222.771 541.869 224.688 540.023 227.151C538.223 229.613 537.324 232.406 537.324 235.531C537.229 238.135 537.774 240.408 538.957 242.349C540.188 244.291 541.869 245.972 544 247.392C546.131 248.765 548.593 249.973 551.386 251.014C554.18 252.009 557.163 252.861 560.335 253.571L573.403 256.696C579.748 258.116 585.572 260.01 590.875 262.378C596.178 264.745 600.771 267.657 604.653 271.114C608.536 274.57 611.543 278.642 613.673 283.33C615.851 288.017 616.964 293.391 617.011 299.452C616.964 308.353 614.691 316.071 610.193 322.605C605.742 329.092 599.303 334.134 590.875 337.733C582.494 341.284 572.385 343.06 560.548 343.06C548.806 343.06 538.579 341.26 529.866 337.662C521.202 334.063 514.431 328.737 509.554 321.682C504.724 314.58 502.191 305.796 501.955 295.332H531.713C532.045 300.209 533.441 304.281 535.903 307.548C538.413 310.768 541.751 313.206 545.918 314.864C550.132 316.473 554.89 317.278 560.193 317.278C565.402 317.278 569.923 316.521 573.759 315.006C577.641 313.491 580.648 311.384 582.778 308.685C584.909 305.986 585.974 302.884 585.974 299.381C585.974 296.114 585.004 293.367 583.062 291.142C581.169 288.917 578.375 287.023 574.682 285.46C571.036 283.898 566.562 282.477 561.259 281.199L545.42 277.222C533.157 274.239 523.474 269.575 516.372 263.23C509.27 256.885 505.742 248.339 505.79 237.591C505.742 228.784 508.086 221.09 512.821 214.509C517.603 207.927 524.161 202.79 532.494 199.097C540.828 195.403 550.297 193.557 560.903 193.557C571.699 193.557 581.121 195.403 589.17 199.097C597.267 202.79 603.564 207.927 608.062 214.509C612.561 221.09 614.881 228.713 615.023 237.378H585.548ZM637.129 341V231.909H667.384V341H637.129ZM652.327 217.847C647.829 217.847 643.97 216.355 640.751 213.372C637.578 210.342 635.992 206.72 635.992 202.506C635.992 198.339 637.578 194.764 640.751 191.781C643.97 188.751 647.829 187.236 652.327 187.236C656.826 187.236 660.661 188.751 663.833 191.781C667.053 194.764 668.663 198.339 668.663 202.506C668.663 206.72 667.053 210.342 663.833 213.372C660.661 216.355 656.826 217.847 652.327 217.847ZM740.768 384.182C730.967 384.182 722.563 382.832 715.555 380.134C708.595 377.482 703.055 373.86 698.936 369.267C694.817 364.674 692.142 359.513 690.911 353.784L718.893 350.02C719.746 352.198 721.095 354.234 722.942 356.128C724.788 358.022 727.227 359.537 730.257 360.673C733.335 361.857 737.075 362.449 741.479 362.449C748.06 362.449 753.482 360.839 757.743 357.619C762.052 354.447 764.206 349.12 764.206 341.639V321.682H762.928C761.602 324.712 759.613 327.577 756.962 330.276C754.31 332.974 750.901 335.176 746.734 336.881C742.568 338.585 737.596 339.438 731.82 339.438C723.628 339.438 716.171 337.544 709.447 333.756C702.771 329.92 697.445 324.073 693.467 316.213C689.537 308.306 687.572 298.315 687.572 286.241C687.572 273.884 689.585 263.562 693.609 255.276C697.634 246.99 702.984 240.787 709.661 236.668C716.384 232.548 723.747 230.489 731.749 230.489C737.857 230.489 742.97 231.53 747.089 233.614C751.209 235.65 754.523 238.206 757.033 241.284C759.589 244.314 761.554 247.297 762.928 250.233H764.064V231.909H794.107V342.065C794.107 351.346 791.834 359.111 787.288 365.361C782.743 371.611 776.446 376.298 768.396 379.423C760.394 382.596 751.185 384.182 740.768 384.182ZM741.408 316.71C746.285 316.71 750.404 315.503 753.766 313.088C757.175 310.626 759.779 307.122 761.578 302.577C763.425 297.984 764.348 292.491 764.348 286.099C764.348 279.707 763.448 274.168 761.649 269.48C759.85 264.745 757.246 261.076 753.837 258.472C750.428 255.867 746.285 254.565 741.408 254.565C736.436 254.565 732.246 255.915 728.837 258.614C725.428 261.265 722.847 264.958 721.095 269.693C719.343 274.428 718.467 279.897 718.467 286.099C718.467 292.397 719.343 297.842 721.095 302.435C722.894 306.98 725.475 310.508 728.837 313.017C732.246 315.479 736.436 316.71 741.408 316.71ZM848.439 277.932V341H818.183V231.909H847.018V251.156H848.297C850.712 244.812 854.76 239.793 860.442 236.099C866.124 232.359 873.013 230.489 881.109 230.489C888.685 230.489 895.29 232.146 900.925 235.46C906.559 238.775 910.939 243.509 914.064 249.665C917.189 255.773 918.751 263.064 918.751 271.54V341H888.496V276.938C888.543 270.261 886.839 265.053 883.382 261.312C879.926 257.525 875.167 255.631 869.107 255.631C865.035 255.631 861.436 256.507 858.311 258.259C855.233 260.01 852.819 262.567 851.067 265.929C849.362 269.243 848.486 273.244 848.439 277.932ZM988.886 341V231.909H1019.14V341H988.886ZM1004.09 217.847C999.587 217.847 995.728 216.355 992.509 213.372C989.336 210.342 987.75 206.72 987.75 202.506C987.75 198.339 989.336 194.764 992.509 191.781C995.728 188.751 999.587 187.236 1004.09 187.236C1008.58 187.236 1012.42 188.751 1015.59 191.781C1018.81 194.764 1020.42 198.339 1020.42 202.506C1020.42 206.72 1018.81 210.342 1015.59 213.372C1012.42 216.355 1008.58 217.847 1004.09 217.847ZM1073.63 277.932V341H1043.38V231.909H1072.21V251.156H1073.49C1075.91 244.812 1079.96 239.793 1085.64 236.099C1091.32 232.359 1098.21 230.489 1106.3 230.489C1113.88 230.489 1120.49 232.146 1126.12 235.46C1131.75 238.775 1136.13 243.509 1139.26 249.665C1142.38 255.773 1143.95 263.064 1143.95 271.54V341H1113.69V276.938C1113.74 270.261 1112.03 265.053 1108.58 261.312C1105.12 257.525 1100.36 255.631 1094.3 255.631C1090.23 255.631 1086.63 256.507 1083.51 258.259C1080.43 260.01 1078.01 262.567 1076.26 265.929C1074.56 269.243 1073.68 273.244 1073.63 277.932ZM1235.6 341L1205.91 231.909H1236.52L1253.43 305.205H1254.42L1272.04 231.909H1302.08L1319.98 304.778H1320.9L1337.52 231.909H1368.06L1338.44 341H1306.41L1287.66 272.392H1286.31L1267.56 341H1235.6ZM1384.2 341V231.909H1414.45V341H1384.2ZM1399.4 217.847C1394.9 217.847 1391.04 216.355 1387.82 213.372C1384.65 210.342 1383.06 206.72 1383.06 202.506C1383.06 198.339 1384.65 194.764 1387.82 191.781C1391.04 188.751 1394.9 187.236 1399.4 187.236C1403.9 187.236 1407.73 188.751 1410.9 191.781C1414.12 194.764 1415.73 198.339 1415.73 202.506C1415.73 206.72 1414.12 210.342 1410.9 213.372C1407.73 216.355 1403.9 217.847 1399.4 217.847ZM1496.72 231.909V254.636H1431.02V231.909H1496.72ZM1445.94 205.773H1476.19V307.477C1476.19 310.271 1476.62 312.449 1477.47 314.011C1478.32 315.527 1479.51 316.592 1481.02 317.207C1482.58 317.823 1484.38 318.131 1486.42 318.131C1487.84 318.131 1489.26 318.012 1490.68 317.776C1492.1 317.491 1493.19 317.278 1493.95 317.136L1498.71 339.651C1497.19 340.124 1495.06 340.669 1492.31 341.284C1489.57 341.947 1486.23 342.349 1482.3 342.491C1475.01 342.776 1468.62 341.805 1463.12 339.58C1457.68 337.354 1453.44 333.898 1450.41 329.21C1447.38 324.523 1445.89 318.604 1445.94 311.455V205.773ZM1549.02 277.932V341H1518.77V195.545H1548.17V251.156H1549.45C1551.91 244.717 1555.89 239.674 1561.38 236.028C1566.88 232.335 1573.76 230.489 1582.05 230.489C1589.63 230.489 1596.23 232.146 1601.87 235.46C1607.55 238.727 1611.95 243.438 1615.08 249.594C1618.25 255.702 1619.81 263.017 1619.76 271.54V341H1589.51V276.938C1589.56 270.214 1587.85 264.982 1584.39 261.241C1580.99 257.501 1576.2 255.631 1570.05 255.631C1565.93 255.631 1562.28 256.507 1559.11 258.259C1555.99 260.01 1553.52 262.567 1551.72 265.929C1549.97 269.243 1549.07 273.244 1549.02 277.932ZM516.124 765V510.455H687.643V554.826H569.941V615.479H678.819V659.851H569.941V720.629H688.141V765H516.124ZM830.981 574.091V613.864H716.013V574.091H830.981ZM742.113 528.352H795.061V706.335C795.061 711.224 795.807 715.036 797.298 717.77C798.79 720.421 800.861 722.286 803.513 723.363C806.247 724.44 809.396 724.979 812.959 724.979C815.444 724.979 817.93 724.772 820.416 724.357C822.902 723.86 824.808 723.487 826.133 723.239L834.461 762.638C831.809 763.467 828.081 764.42 823.275 765.497C818.469 766.657 812.627 767.362 805.75 767.61C792.989 768.107 781.803 766.409 772.192 762.514C762.663 758.62 755.247 752.571 749.944 744.368C744.641 736.165 742.031 725.807 742.113 713.295V528.352ZM922.52 654.631V765H869.573V510.455H921.029V607.773H923.266C927.575 596.504 934.535 587.68 944.146 581.3C953.758 574.837 965.814 571.605 980.315 571.605C993.572 571.605 1005.13 574.505 1014.99 580.305C1024.93 586.023 1032.64 594.267 1038.11 605.039C1043.66 615.728 1046.4 628.53 1046.31 643.445V765H993.365V652.891C993.448 641.125 990.465 631.969 984.416 625.423C978.45 618.877 970.082 615.604 959.31 615.604C952.101 615.604 945.721 617.137 940.169 620.202C934.7 623.268 930.392 627.743 927.243 633.626C924.177 639.426 922.603 646.428 922.52 654.631ZM1174.98 768.729C1155.35 768.729 1138.44 764.751 1124.27 756.797C1110.19 748.759 1099.33 737.408 1091.71 722.741C1084.09 707.992 1080.27 690.55 1080.27 670.415C1080.27 650.778 1084.09 633.543 1091.71 618.711C1099.33 603.879 1110.06 592.32 1123.9 584.034C1137.82 575.748 1154.14 571.605 1172.87 571.605C1185.47 571.605 1197.19 573.635 1208.04 577.695C1218.98 581.673 1228.51 587.68 1236.63 595.717C1244.83 603.755 1251.21 613.864 1255.77 626.044C1260.33 638.142 1262.61 652.311 1262.61 668.551V683.093H1101.4V650.281H1212.77C1212.77 642.657 1211.11 635.904 1207.8 630.021C1204.48 624.138 1199.88 619.54 1194 616.225C1188.2 612.828 1181.45 611.129 1173.74 611.129C1165.7 611.129 1158.58 612.994 1152.36 616.722C1146.23 620.368 1141.43 625.298 1137.95 631.513C1134.47 637.644 1132.68 644.48 1132.6 652.021V683.217C1132.6 692.663 1134.34 700.825 1137.82 707.702C1141.38 714.58 1146.4 719.883 1152.86 723.612C1159.32 727.34 1166.99 729.205 1175.85 729.205C1181.74 729.205 1187.12 728.376 1192.01 726.719C1196.9 725.062 1201.08 722.576 1204.56 719.261C1208.04 715.947 1210.7 711.887 1212.52 707.081L1261.49 710.312C1259 722.079 1253.91 732.353 1246.2 741.136C1238.58 749.837 1228.72 756.631 1216.62 761.52C1204.61 766.326 1190.73 768.729 1174.98 768.729ZM1297.16 765V574.091H1348.49V607.401H1350.48C1353.96 595.552 1359.8 586.603 1368.01 580.554C1376.21 574.422 1385.65 571.357 1396.34 571.357C1399 571.357 1401.85 571.522 1404.92 571.854C1407.99 572.185 1410.68 572.641 1413 573.221V620.202C1410.51 619.457 1407.07 618.794 1402.68 618.214C1398.29 617.634 1394.27 617.344 1390.63 617.344C1382.84 617.344 1375.88 619.042 1369.75 622.44C1363.7 625.754 1358.89 630.394 1355.33 636.36C1351.85 642.326 1350.11 649.203 1350.11 656.992V765H1297.16ZM1518.49 768.729C1498.85 768.729 1481.95 764.751 1467.78 756.797C1453.69 748.759 1442.84 737.408 1435.22 722.741C1427.59 707.992 1423.78 690.55 1423.78 670.415C1423.78 650.778 1427.59 633.543 1435.22 618.711C1442.84 603.879 1453.57 592.32 1467.41 584.034C1481.33 575.748 1497.65 571.605 1516.38 571.605C1528.97 571.605 1540.7 573.635 1551.55 577.695C1562.49 581.673 1572.02 587.68 1580.14 595.717C1588.34 603.755 1594.72 613.864 1599.28 626.044C1603.84 638.142 1606.11 652.311 1606.11 668.551V683.093H1444.91V650.281H1556.27C1556.27 642.657 1554.62 635.904 1551.3 630.021C1547.99 624.138 1543.39 619.54 1537.51 616.225C1531.71 612.828 1524.95 611.129 1517.25 611.129C1509.21 611.129 1502.08 612.994 1495.87 616.722C1489.74 620.368 1484.93 625.298 1481.45 631.513C1477.97 637.644 1476.19 644.48 1476.11 652.021V683.217C1476.11 692.663 1477.85 700.825 1481.33 707.702C1484.89 714.58 1489.9 719.883 1496.37 723.612C1502.83 727.34 1510.49 729.205 1519.36 729.205C1525.24 729.205 1530.63 728.376 1535.52 726.719C1540.41 725.062 1544.59 722.576 1548.07 719.261C1551.55 715.947 1554.2 711.887 1556.03 707.081L1605 710.312C1602.51 722.079 1597.41 732.353 1589.71 741.136C1582.08 749.837 1572.22 756.631 1560.13 761.52C1548.11 766.326 1534.23 768.729 1518.49 768.729ZM1763.09 683.714V574.091H1816.04V765H1765.2V730.323H1763.22C1758.91 741.509 1751.74 750.5 1741.71 757.294C1731.77 764.089 1719.63 767.486 1705.3 767.486C1692.54 767.486 1681.31 764.586 1671.61 758.786C1661.92 752.985 1654.34 744.741 1648.87 734.052C1643.48 723.363 1640.75 710.561 1640.67 695.646V574.091H1693.61V686.2C1693.7 697.469 1696.72 706.377 1702.69 712.923C1708.65 719.469 1716.65 722.741 1726.67 722.741C1733.06 722.741 1739.02 721.291 1744.57 718.391C1750.12 715.408 1754.6 711.017 1758 705.217C1761.48 699.416 1763.17 692.249 1763.09 683.714ZM1858.39 765V574.091H1908.85V607.773H1911.09C1915.07 596.587 1921.7 587.763 1930.98 581.3C1940.26 574.837 1951.36 571.605 1964.29 571.605C1977.38 571.605 1988.52 574.878 1997.72 581.424C2006.92 587.887 2013.05 596.67 2016.11 607.773H2018.1C2022 596.836 2029.04 588.094 2039.23 581.548C2049.51 574.92 2061.65 571.605 2075.65 571.605C2093.46 571.605 2107.92 577.281 2119.03 588.633C2130.21 599.902 2135.81 615.894 2135.81 636.609V765H2082.98V647.049C2082.98 636.443 2080.17 628.488 2074.53 623.185C2068.9 617.882 2061.85 615.231 2053.4 615.231C2043.79 615.231 2036.29 618.297 2030.91 624.428C2025.52 630.477 2022.83 638.473 2022.83 648.416V765H1971.49V645.93C1971.49 636.567 1968.8 629.11 1963.42 623.558C1958.11 618.007 1951.11 615.231 1942.41 615.231C1936.53 615.231 1931.22 616.722 1926.5 619.705C1921.86 622.605 1918.17 626.707 1915.44 632.01C1912.71 637.23 1911.34 643.362 1911.34 650.405V765H1858.39Z" fill="white"/>
<path d="M0 373.319L155.687 116L310.237 373.319L155.687 466.992L0 373.319Z" fill="white"/>
<path d="M155.687 495.831L0 402.116L155.687 620.031L310.237 402.116L155.687 495.831Z" fill="white"/>
<path d="M122.386 502.915H188.037V844.311L122.386 879.386V502.915Z" fill="white"/>
<rect x="156.891" y="673.721" width="105.658" height="56.4193" fill="white"/>
<rect x="156.891" y="763.991" width="105.658" height="56.4193" fill="white"/>
</svg>
